<svg xmlns="http://www.w3.org/2000/svg" viewBox="0 0 100 100"><path fill="#f7df1e" stroke="#f7df1e" stroke-linejoin="round" stroke-miterlimit="18" stroke-width="10" d="M8 8h84v84H8z"/><path fill="#333" d="M53.72 92.9H21.7V45.03h31.42v6.84H29.68v12.96h21.13v6.72H29.68v14.59h24.04v6.78zm3.5-10.22l7.04-2.36a13.21 13.21 0 004.9 4.93 13.6 13.6 0 007.09 1.9c2.66 0 4.8-.64 6.4-1.93a6.13 6.13 0 002.44-5.02c0-2.18-.86-3.88-2.58-5.1-1.72-1.2-4.23-2.37-7.53-3.5-4.73-1.57-7.92-2.83-9.57-3.76-4.32-2.46-6.48-6.03-6.48-10.71 0-3.96 1.55-7.15 4.66-9.57 3.1-2.42 7.16-3.63 12.17-3.63 4.12 0 7.64.96 10.57 2.87a17 17 0 016.39 7.36l-6.73 2.24c-2.58-3.75-6.01-5.63-10.3-5.63-2.61 0-4.7.59-6.22 1.76a5.5 5.5 0 00-2.31 4.6c0 .56.06 1.1.19 1.6.12.5.36.98.72 1.42.36.45.69.83.97 1.15.28.33.75.67 1.39 1.03a17.46 17.46 0 003.46 1.64c.88.32 1.52.54 1.9.66a901.08 901.08 0 004.27 1.4 40 40 0 014.9 1.93c1.41.69 2.8 1.57 4.15 2.64a10.68 10.68 0 013.12 3.96 12.6 12.6 0 011.09 5.33c0 4.48-1.6 7.95-4.81 10.42C85.29 92.77 81.14 94 76.06 94a21.6 21.6 0 01-11.56-3.06 18.21 18.21 0 01-7.27-8.26z"/></svg>